<?xml version="1.0" encoding="UTF-8" standalone="no"?>
<!-- Created with Inkscape (http://www.inkscape.org/) -->

<svg
   xmlns:dc="http://purl.org/dc/elements/1.1/"
   xmlns:cc="http://creativecommons.org/ns#"
   xmlns:rdf="http://www.w3.org/1999/02/22-rdf-syntax-ns#"
   xmlns:svg="http://www.w3.org/2000/svg"
   xmlns="http://www.w3.org/2000/svg"
   xmlns:sodipodi="http://sodipodi.sourceforge.net/DTD/sodipodi-0.dtd"
   xmlns:inkscape="http://www.inkscape.org/namespaces/inkscape"
   width="1000"
   height="448"
   viewBox="0 0 264.58332 118.53334"
   version="1.1"
   id="svg882"
   inkscape:version="0.92.4 5da689c313, 2019-01-14"
   sodipodi:docname="Logo-kattendroom.png"
   inkscape:dataloss="true"
   inkscape:export-filename="/home/elise/Desktop/becode_projects/red-line-project/Logo-kattendroom.png"
   inkscape:export-xdpi="96"
   inkscape:export-ydpi="96">
  <defs
     id="defs876" />
  <sodipodi:namedview
     id="base"
     pagecolor="#ffffff"
     bordercolor="#666666"
     borderopacity="1.0"
     inkscape:pageopacity="0.0"
     inkscape:pageshadow="2"
     inkscape:zoom="0.35"
     inkscape:cx="-145.71429"
     inkscape:cy="560"
     inkscape:document-units="px"
     inkscape:current-layer="layer1"
     showgrid="false"
     units="px"
     width="600px"
     inkscape:window-width="1366"
     inkscape:window-height="660"
     inkscape:window-x="0"
     inkscape:window-y="27"
     inkscape:window-maximized="1"
     inkscape:pagecheckerboard="true" />
  <metadata
     id="metadata879">
    <rdf:RDF>
      <cc:Work
         rdf:about="">
        <dc:format>image/svg+xml</dc:format>
        <dc:type
           rdf:resource="http://purl.org/dc/dcmitype/StillImage" />
        <dc:title></dc:title>
      </cc:Work>
    </rdf:RDF>
  </metadata>
  <g
     inkscape:label="Layer 1"
     inkscape:groupmode="layer"
     id="layer1"
     transform="translate(0,-178.46666)">
    <path
       style="fill:#e0dce4;fill-opacity:1;stroke:none;stroke-width:0.90690118px;stroke-linecap:butt;stroke-linejoin:miter;stroke-opacity:1"
       d="m 87.314705,201.38091 c 0,0 -7.948861,-14.57028 -24.509002,-5.70142 -16.560144,8.86887 -3.97443,22.17215 -3.97443,22.17215 0,0 -19.209778,-0.63351 -17.884965,12.66977 1.324809,13.30328 9.936092,11.40282 16.560144,10.76932 3.974446,10.13587 0.662408,12.66982 13.248124,15.83728 12.585717,3.16741 17.222575,-11.40283 17.222575,-11.40283 0,0 3.974412,11.40283 12.585679,12.03628 8.6113,0.63351 23.18421,-6.96833 19.8722,-16.47073 5.29924,1.267 21.197,-6.33487 17.88495,-22.1721 -2.64963,-16.47072 -19.20976,-15.83723 -19.20976,-15.83723 0,0 -0.6624,-13.30332 -11.2609,-15.2038 -10.598488,-1.90042 -18.547391,2.53394 -20.534615,13.30331 z"
       id="path1313"
       inkscape:connector-curvature="0"
       sodipodi:nodetypes="cscscscsccccc" />
    <g
       transform="matrix(3.7594109,0,0,3.7594109,-52.739249,-277.49067)"
       id="g1235">
      <path
         inkscape:connector-curvature="0"
         id="path1177"
         d="m 17.773423,147.39587 c 0,0 -2.646788,-3.48066 0.467722,-5.7463 0.279688,-3.58856 0.80181,-7.75082 3.674956,-10.89123 1.896399,-3.84763 2.873146,-3.14041 2.873146,-3.14041 2.271794,-2.93996 2.204976,-3.67495 5.211756,-1.87088 2.271792,2.00452 3.474503,2.93996 1.403165,5.4122 -2.071338,2.47224 -2.071338,2.47224 -2.071338,2.47224 0,0 0.868627,0.66819 0.06682,2.67271 -0.80181,2.00451 -2.004523,2.20496 -2.004523,2.20496 0,0 2.204974,-0.0668 2.472245,1.80408 0.267269,1.87087 0.06682,3.74177 -0.334087,4.14268 -0.400904,0.4009 -1.737254,0.1336 -2.739514,1.33633 -1.00226,1.20273 -4.610398,2.2718 -6.815372,1.93771 -2.204974,-0.33409 -2.204974,-0.33409 -2.204974,-0.33409"
         style="fill:#fe491b;fill-opacity:1;stroke:none;stroke-width:0.26458332px;stroke-linecap:butt;stroke-linejoin:miter;stroke-opacity:1" />
      <path
         sodipodi:nodetypes="ccscssccsscc"
         inkscape:connector-curvature="0"
         id="path1231"
         d="m 17.773423,147.39587 c 0,0 1.503363,2.28791 4.054702,3.61082 2.551339,1.32292 4.063244,1.7009 8.787947,0.37798 4.724702,-1.32292 2.661061,-4.981 2.094096,-5.54796 -0.566962,-0.56697 -2.444931,-1.62434 -3.061473,-1.61115 -3.414846,0.073 -2.236007,-0.43496 -2.854926,1.56669 -0.618918,2.00165 1.469984,0.60136 1.469984,0.60136 0,0 1.295195,-1.35052 2.38622,-0.13357 0.422846,0.63231 1.005533,3.32924 -2.963217,3.51823 -3.96875,0.18899 -3.779367,0.6767 -5.102481,-2.44922 -1.323115,-3.12593 -4.810852,0.0668 -4.810852,0.0668 z"
         style="fill:#fe491b;fill-opacity:1;stroke:none;stroke-width:0.26458332px;stroke-linecap:butt;stroke-linejoin:miter;stroke-opacity:1" />
    </g>
    <path
       style="opacity:1;vector-effect:none;fill:#e0dce4;fill-opacity:1;stroke:none;stroke-width:0.99624383;stroke-linecap:butt;stroke-linejoin:miter;stroke-miterlimit:4;stroke-dasharray:none;stroke-dashoffset:0;stroke-opacity:1"
       id="path1309"
       d="m 20.118017,221.18104 c 1.815988,0.98745 3.455208,2.2528 5.182194,3.379 0.561453,0.36617 1.137929,0.70865 1.706896,1.06301 1.929353,1.21305 3.995608,2.15013 6.093521,3.02355 1.96774,0.81929 2.367185,1.0071 4.375206,1.64774 0.723262,0.23084 1.456136,0.43023 2.184202,0.64534 2.770401,0.70178 5.589918,1.17132 8.39175,1.72324 0.432373,0.17444 -2.036611,6.28946 -2.468997,6.11487 v 0 c -3.109645,-0.38289 -6.212546,-0.84756 -9.218245,-1.76643 -0.80934,-0.24849 -1.624757,-0.47771 -2.428018,-0.74504 -4.124112,-1.37264 -8.1037,-3.22122 -11.582464,-5.85337 -2.114518,-1.68962 -4.269374,-3.42772 -5.931624,-5.58385 -0.257971,-0.26128 3.437623,-3.90937 3.695579,-3.64806 z"
       inkscape:connector-curvature="0" />
    <path
       style="opacity:1;vector-effect:none;fill:#e0dce4;fill-opacity:1;stroke:none;stroke-width:0.99624383;stroke-linecap:butt;stroke-linejoin:miter;stroke-miterlimit:4;stroke-dasharray:none;stroke-dashoffset:0;stroke-opacity:1"
       id="path1311"
       d="m 16.960213,231.55608 c 1.881582,0.86166 3.549141,2.11718 5.314075,3.1855 0.596001,0.3609 1.202451,0.70395 1.803675,1.05594 4.556905,2.64077 9.575257,4.34903 14.597863,5.86265 2.427396,0.70839 1.292204,0.38214 3.404583,0.98218 0.413584,0.17332 -2.036804,6.02224 -2.450388,5.84897 v 0 c -2.632497,-0.23308 -1.24159,-0.0632 -4.168103,-0.54676 -0.9075,-0.22068 -1.824492,-0.40561 -2.722487,-0.6623 -4.779143,-1.36606 -9.242286,-3.61449 -13.241747,-6.55889 -2.243048,-1.70681 -4.471977,-3.48344 -6.362103,-5.58502 -0.253309,-0.27031 3.571331,-3.85272 3.824632,-3.58227 z"
       inkscape:connector-curvature="0" />
    <path
       id="path1122"
       style="opacity:1;vector-effect:none;fill:#000000;fill-opacity:0.8745098;stroke:none;stroke-width:0.99624383;stroke-linecap:butt;stroke-linejoin:miter;stroke-miterlimit:4;stroke-dasharray:none;stroke-dashoffset:0;stroke-opacity:1;filter:url(#filter1253)"
       d="m 68.134029,216.26001 c 0.152557,0.0113 0.306429,0.015 0.457689,0.0376 0.17485,0.0263 0.342934,0.0914 0.518348,0.11503 0.516257,0.0691 0.860078,-0.008 1.361384,0.18196 0.06606,0.0264 1.003939,0.60515 1.073985,0.64819 0.490317,0.35678 0.966439,0.84636 1.166707,1.43854 0.04296,0.12708 0.09,0.58662 0.10631,0.72613 -0.02593,0.0763 -0.05154,0.15264 -0.07729,0.22895 0.006,0.0458 -0.645228,0.12632 -0.650897,0.08 v 0 c -0.04515,-0.0556 -0.0903,-0.11127 -0.135414,-0.16691 -0.178347,-0.44539 -1.103695,-0.73361 -1.481783,-0.99481 -0.162219,-0.0838 -0.320866,-0.1752 -0.486674,-0.25189 -0.187369,-0.0869 -0.396769,-0.12857 -0.571912,-0.23798 -0.302181,-0.18872 -0.612641,-0.60717 -0.872041,-0.83872 -0.128233,-0.11466 -0.288497,-0.19022 -0.413659,-0.30789 -0.09778,-0.0921 -0.166391,-0.21091 -0.249549,-0.31616 -0.02406,-0.0188 0.230602,-0.35979 0.254774,-0.34173 z m 1.286884,-2.87584 c 1.596558,-0.84308 2.882904,-0.64853 4.53168,-0.10191 0.81895,0.36053 1.380156,0.96583 1.8576,1.69524 0.0376,0.0409 -0.543009,0.55624 -0.579438,0.51526 v 0 c -0.692559,-0.24022 -1.430569,-0.26392 -2.157356,-0.31128 -1.326415,-0.1312 -2.744168,-0.10637 -3.882717,-0.90056 -0.06335,-0.015 0.166843,-0.91298 0.230228,-0.89666 z m -26.396035,1.96795 c -0.568002,0.69718 -1.418519,1.00143 -2.22727,1.32462 -0.339738,0.13572 -0.669202,0.30414 -1.022759,0.39808 -0.401205,0.10682 -0.819447,0.13347 -1.229162,0.20039 -0.425851,0.0263 -0.851695,0.0504 -1.277545,0.0756 -0.09538,0.0496 -0.796605,-1.29884 -0.701255,-1.34843 v 0 c 0.337106,-0.18759 0.674232,-0.37481 1.011357,-0.56226 0.352182,-0.15112 0.692224,-0.3342 1.056556,-0.45274 0.34831,-0.11353 0.715472,-0.1579 1.072313,-0.2406 0.940765,-0.21805 1.877724,-0.50336 2.853787,-0.33798 0.06673,-0.0339 0.530682,0.9105 0.463978,0.94331 z m 0.388253,-3.15314 c -0.13545,0.0745 -0.262443,0.16693 -0.406354,0.22293 -0.301392,0.11768 -0.997394,0.24286 -1.279317,0.31054 -0.865837,0.20789 -1.725268,0.4224 -2.574245,0.69053 -1.275353,0.36579 -2.591663,0.44672 -3.910129,0.39913 -0.05496,0.03 -0.493021,-0.74613 -0.438069,-0.77711 v 0 c 0.985037,-0.90489 1.901589,-1.56643 3.221846,-1.94035 0.562369,-0.103 1.410282,-0.26954 1.979021,-0.33007 0.315001,-0.0339 0.632565,-0.0376 0.948664,-0.0572 0.579051,-0.0383 1.044797,-0.12856 1.615585,0.003 0.183985,0.0425 0.347257,0.14887 0.5209,0.22293 0.08873,-0.0225 0.410802,1.23169 0.322106,1.25448 z m 13.157394,3.14077 c 0,0 3.265525,-1.50715 4.772688,0.25112 -2.51194,2.26077 -2.51194,2.26077 -2.51194,2.26077 z m 4.732298,-6.27991 c 0,0 2.260743,-4.27032 4.270299,-3.01434 0.753577,0.50237 0.753577,2.76313 -0.251204,3.01434 -1.004774,0.25113 -4.019103,0 -4.019103,0 z m -6.028659,0.25113 c 0,0 -3.265519,-5.77747 -5.777456,-4.77269 -2.511941,1.00478 -2.511941,4.77269 -1.25597,5.27509 1.25597,0.50237 7.033426,-0.5024 7.033426,-0.5024 z m -25.621785,4.77268 c 0,0 1.507167,1.75835 4.772689,-10.04774 1.004771,-3.51673 1.255967,-4.0191 3.516712,-2.76316 2.260751,1.25598 2.511936,1.00481 2.511936,1.00481 0,0 -1.25597,-5.02388 -0.502382,-8.7918 0.753579,-3.7679 0.753579,-5.52629 2.009548,-5.02388 1.255971,0.50237 5.275074,6.02867 6.531052,6.78224 -0.251204,-1.50718 -0.251204,-2.26076 -0.251204,-2.26076 0,0 2.260745,-2.00955 6.279848,0.25113 4.019104,2.26076 5.777463,5.77747 7.033433,4.01911 1.25597,-1.75835 1.004774,-4.27032 3.767907,-4.52148 0.251204,2.00952 -0.502392,2.51192 -0.753578,5.52626 -0.251203,3.01429 1.758352,2.00955 1.758352,2.00955 0,0 0,-2.00955 1.004786,-4.77268 1.004769,-2.76313 2.009543,-6.02867 3.767907,-6.53108 -4.019104,-0.75357 -6.028663,0.25113 -7.787015,1.75836 -1.758359,1.50719 -2.763133,1.00477 -6.279855,0.25113 -3.516711,-0.75358 -8.289404,-0.50237 -9.294178,0.75356 -3.51671,-3.7679 -5.275069,-6.27982 -6.782236,-5.77742 -3.265515,4.27028 -6.782236,6.02863 -6.028655,11.8061 0.251204,1.25598 0.251204,1.25598 0.251204,1.25598 0,0 -2.511941,2.00955 -5.526271,5.27505 -3.014325,3.26553 -3.265522,8.03822 0,9.79658 z m 30.896865,42.95416 c 0,0 -2.763133,-11.30372 -9.796565,-9.54537 -7.033438,1.7584 -10.298963,8.7918 -10.298963,8.7918 0,0 3.516722,-8.28938 9.79657,-13.06207 4.019104,-4.52148 5.526266,-8.03822 5.275074,-12.55971 -0.251204,-4.52148 1.255966,-6.78224 -4.019104,-7.5358 -5.275074,-0.75358 -13.062084,-2.00957 -13.062084,-2.00957 0,0 3.265526,-3.26553 5.275069,-3.01433 2.00956,0.25113 7.033438,3.2655 9.545375,3.51671 2.511936,0.25113 4.521495,1.25598 7.033433,-0.75358 2.51194,-2.00955 5.023876,-5.27505 5.023876,-5.27505 0,0 -4.772681,7.28461 -7.78701,9.29416 1.004774,1.50716 3.516711,5.0239 2.009548,10.04774 -1.507166,5.0239 -4.772682,7.53585 -4.772682,7.53585 0,0 6.028649,2.51193 6.531042,8.03819 0.502392,5.5263 -0.753579,6.53103 -0.753579,6.53103 z m -38.18149,20.84914 9.796566,-1.50719 c 0,0 3.265519,8.54059 9.294181,9.2942 6.028652,0.75358 19.341929,0 21.602684,-5.77746 2.26074,-5.77747 2.763133,-12.30853 -1.758362,-13.31332 -4.521497,-1.00473 -8.5406,1.25598 -7.787011,6.27988 -3.767907,-1.50719 -5.526271,-2.26077 -5.526271,-2.26077 0,0 4.270301,-6.78224 9.294178,-6.27982 5.023877,0.50237 15.322836,5.02388 14.820447,12.05729 -0.502393,7.03344 -14.318055,10.80135 -19.090747,11.80612 -4.772681,1.00479 -20.849099,3.51671 -30.645665,-10.29893 z m -0.502389,-61.79374 c 0,0 -10.80134,9.043 -11.806117,15.32283 -1.0047745,6.27983 -0.5023858,17.8348 -0.5023858,17.8348 0,0 -7.0334333,2.00952 -7.0334333,10.29894 0,8.28938 11.5549221,17.08118 11.5549221,17.08118 0,0 -12.0573107,-14.56925 -7.284622,-17.83475 4.772686,-3.26554 9.042981,-3.76795 9.042981,-3.76795 0,0 -2.260744,0 -2.009552,-10.29895 0.251204,-10.29893 0,-15.57399 2.009552,-19.34194 2.009552,-3.7679 6.028655,-9.29416 6.028655,-9.29416 z"
       inkscape:connector-curvature="0" />
    <flowRoot
       transform="matrix(0.85998167,0,0,1.0321502,-51.039472,-299.52302)"
       xml:space="preserve"
       id="flowRoot1315"
       style="font-style:normal;font-weight:normal;font-size:40px;line-height:1.25;font-family:sans-serif;letter-spacing:0px;word-spacing:0px;fill:#000000;fill-opacity:0.8745098;stroke:none;filter:url(#filter1253)"><flowRegion
         id="flowRegion1317"
         style="fill:#000000;fill-opacity:0.8745098"><rect
           id="rect1319"
           width="326.35919"
           height="70.854774"
           x="141.49797"
           y="509.52206"
           style="fill:#000000;fill-opacity:0.8745098" /></flowRegion><flowPara
         id="flowPara1321"
         style="font-style:normal;font-variant:normal;font-weight:normal;font-stretch:normal;font-family:pacifico;-inkscape-font-specification:pacifico;fill:#000000;fill-opacity:0.8745098">Kattendroom</flowPara></flowRoot>    <path
       style="opacity:1;vector-effect:none;fill:#000000;fill-opacity:0.8745098;stroke:none;stroke-width:1.09351623;stroke-linecap:butt;stroke-linejoin:miter;stroke-miterlimit:4;stroke-dasharray:none;stroke-dashoffset:0;stroke-opacity:1;filter:url(#filter1253)"
       id="path854"
       d="m 89.56757,267.58642 c 10.415861,0.33873 20.84011,0.51793 31.26081,0.73061 38.97351,0.85624 77.95732,0.69898 116.93235,0.0639 7.55798,-0.16654 15.11598,-0.33272 22.67394,-0.49906 0,0 -5.04829,3.05 -5.04829,3.05 v 0 c -7.50152,0.13158 -15.00305,0.26353 -22.50459,0.39508 -39.95445,0.75023 -79.91356,1.16865 -119.87268,1.69064 -11.23089,0.21467 -22.464583,0.39921 -33.691386,0.73058 0,0 10.249846,-6.16157 10.249846,-6.16157 z"
       inkscape:connector-curvature="0" />
  </g>
</svg>
